<?xml version="1.0" encoding="utf-8"?>
<!-- Generator: Adobe Illustrator 19.0.0, SVG Export Plug-In . SVG Version: 6.00 Build 0)  -->
<svg version="1.1" id="Layer_1" xmlns="http://www.w3.org/2000/svg" xmlns:xlink="http://www.w3.org/1999/xlink" x="0px" y="0px"
	 viewBox="0 0 187 180.5" style="enable-background:new 0 0 187 180.5;" xml:space="preserve">
<style type="text/css">
	.st0{fill:#FC92B6;}
	.st1{fill:#FFFFFF;}
	.st2{opacity:7.000000e-02;}
	.st3{fill:url(#XMLID_4_);}
	.st4{opacity:0.3;fill:url(#XMLID_5_);enable-background:new    ;}
	.st5{fill:url(#XMLID_6_);}
	.st6{fill:url(#XMLID_13_);}
	.st7{fill:#AECEFC;}
	.st8{fill:url(#XMLID_14_);}
	.st9{fill:#94B6FB;}
	.st10{fill:#F76548;}
	.st11{fill:#78CC64;}
	.st12{fill:#FAFCFF;}
	.st13{fill:#EAC242;}
	.st14{fill:#FEB7CB;}
	.st15{fill:url(#XMLID_15_);}
	.st16{opacity:0.2;fill:#FFFFFF;enable-background:new    ;}
	.st17{opacity:0.5;fill:url(#XMLID_16_);enable-background:new    ;}
</style>
<g id="XMLID_3_">
	<g id="XMLID_4463_">
		<g id="XMLID_4747_">
			<path id="XMLID_258_" class="st0" d="M80,166.7c-8.1,0-16.5-0.6-25.2-1.7c-23.9-3.1-38.9-11.4-46-25.3
				c-10.1-19.9-2.9-51.2,21.7-95.6c11-19.8,29.2-31.2,49.9-31.2c11.2,0,22.6,3.4,32.8,10l1.4,0.9c29,18.6,39.9,25.5,60.7,58.2
				c6.7,10.5,8.9,21.7,6.3,32.4c-3.1,12.8-12.9,24.5-27.5,33C131.7,160.4,107.4,166.7,80,166.7C80,166.7,80,166.7,80,166.7z"/>
			<g id="XMLID_250_">
				<path id="XMLID_255_" class="st1" d="M80.4,15.9c10.5,0,21.3,3.2,31.2,9.5c29.7,19,40.4,25.5,61.2,58.2
					c15.8,24.9,2.4,48.1-20.2,61.2c-24.2,14-48.9,18.9-72.6,18.9c-8.4,0-16.7-0.6-24.8-1.7c-50.5-6.5-65.9-37.4-22-116.4
					C44.3,25.6,62.1,15.9,80.4,15.9 M80.4,9.9C58.7,9.9,39.5,21.8,28,42.7C15.2,65.5,7.3,84.5,3.6,100.8C0,117.2,0.8,130.4,6.1,141
					c7.5,14.9,23.3,23.7,48.3,26.9c8.8,1.1,17.4,1.7,25.6,1.7c28,0,52.7-6.4,75.6-19.7c15.3-8.9,25.6-21.2,28.9-34.9
					c2.8-11.5,0.5-23.5-6.6-34.7c-21.2-33.3-33-40.9-61.6-59.2l-1.4-0.9C104.2,13.5,92.3,9.9,80.4,9.9L80.4,9.9z"/>
			</g>
		</g>
		<g id="XMLID_4737_" class="st2">
			<linearGradient id="XMLID_4_" gradientUnits="userSpaceOnUse" x1="140.1042" y1="63.5007" x2="27.1042" y2="126.5007">
				<stop  offset="0" style="stop-color:#FFFFFF"/>
				<stop  offset="0.1185" style="stop-color:#FBFBFC;stop-opacity:0.9704"/>
				<stop  offset="0.248" style="stop-color:#EDEFF3;stop-opacity:0.938"/>
				<stop  offset="0.3826" style="stop-color:#D8DBE3;stop-opacity:0.9043"/>
				<stop  offset="0.5209" style="stop-color:#B9BFCD;stop-opacity:0.8698"/>
				<stop  offset="0.662" style="stop-color:#929BB2;stop-opacity:0.8345"/>
				<stop  offset="0.8053" style="stop-color:#616F8F;stop-opacity:0.7987"/>
				<stop  offset="0.948" style="stop-color:#293C68;stop-opacity:0.763"/>
				<stop  offset="1" style="stop-color:#132858;stop-opacity:0.75"/>
			</linearGradient>
			<path id="XMLID_254_" class="st3" d="M172.8,83.6c-20.8-32.7-31.5-39.2-61.2-58.2c-27-17.3-60.9-11.2-78.4,20.2
				c-44,79-28.5,109.9,22,116.4c30.8,4,64.6,1.8,97.4-17.2C175.2,131.7,188.6,108.5,172.8,83.6z"/>
		</g>
		<g id="XMLID_4418_">
			<title>wb-location-landing</title>
			
				<linearGradient id="XMLID_5_" gradientUnits="userSpaceOnUse" x1="7508.5981" y1="1893.7977" x2="7503.9751" y2="1876.5482" gradientTransform="matrix(-1 0 0 -1 7584.4199 2013.3)">
				<stop  offset="0.17" style="stop-color:#122549;stop-opacity:0"/>
				<stop  offset="0.88" style="stop-color:#122549;stop-opacity:0.7"/>
			</linearGradient>
			<path id="XMLID_4731_" class="st4" d="M96.4,111.4l41.4,19.8c0.2,0.1,0.3,0.4,0.2,0.6c-0.1,0.1-0.2,0.2-0.3,0.2l-81.5,14.4
				c-0.6,0.1-1.1,0-1.7-0.2l-35.5-18.3L96.4,111.4z"/>
			
				<linearGradient id="XMLID_6_" gradientUnits="userSpaceOnUse" x1="-192.4616" y1="1946.7228" x2="-68.3309" y2="1946.7228" gradientTransform="matrix(1 0 0 -1 250 2013.3)">
				<stop  offset="0" style="stop-color:#94B6FB"/>
				<stop  offset="1" style="stop-color:#DFEAFE"/>
			</linearGradient>
			<path id="XMLID_4730_" class="st5" d="M132.4,24.8l0-5.6c0-0.1,0-0.2,0-0.3l2-1l-3.5-1.7l0,0l-0.6-0.3c-0.2-0.1-0.4-0.1-0.6-0.1
				c-0.2,0-0.5,0-0.7,0L55.9,28.6l76,88.8L132.4,24.8z"/>
			
				<linearGradient id="XMLID_13_" gradientUnits="userSpaceOnUse" x1="-158.252" y1="1976.7324" x2="-158.252" y2="1872.4944" gradientTransform="matrix(1 0 0 -1 250 2013.3)">
				<stop  offset="0" style="stop-color:#94B6FB"/>
				<stop  offset="1" style="stop-color:#4777D0"/>
			</linearGradient>
			<polygon id="XMLID_4729_" class="st6" points="52.3,33.3 52.3,38.9 51.7,143.3 55.3,145.1 55.8,142.6 131.8,129.2 131.8,68.3 
				52.3,33.2 			"/>
			<path id="XMLID_4728_" class="st7" d="M55.9,28.6h-0.1c-0.2,0-0.5,0.1-0.7,0.2c-0.2,0.1-0.5,0.2-0.7,0.4
				c-0.9,0.6-1.5,1.5-1.9,2.5l-0.2,0.8l-0.1,0.7l72.1,35.1l0-6.3L55.9,28.6z"/>
			<g id="XMLID_4711_">
				
					<linearGradient id="XMLID_14_" gradientUnits="userSpaceOnUse" x1="-225.062" y1="1984.1545" x2="-113.8084" y2="1984.1545" gradientTransform="matrix(1 0 0 -1 250 2013.3)">
					<stop  offset="0" style="stop-color:#94B6FB"/>
					<stop  offset="1" style="stop-color:#DFEAFE"/>
				</linearGradient>
				<path id="XMLID_4727_" class="st8" d="M132.7,17.6c1.9-0.4,3.5,1.2,3.5,3.4l0,5.7L55.9,40.8l0-5.7c0-2.2,1.6-4.3,3.5-4.6
					L132.7,17.6z"/>
				<path id="XMLID_4724_" class="st9" d="M61.8,37c-1,0.2-1.9-0.6-1.8-1.8c0-1.2,0.8-2.3,1.9-2.5c1-0.2,1.9,0.6,1.8,1.8
					C63.6,35.7,62.8,36.9,61.8,37z M61.8,33c-1,0.3-1.7,1.2-1.7,2.2c0,1.1,0.7,1.8,1.6,1.6c1-0.3,1.7-1.2,1.7-2.2
					C63.4,33.5,62.7,32.8,61.8,33"/>
				<path id="XMLID_4721_" class="st9" d="M67.6,36c-1,0.2-1.9-0.6-1.8-1.8s0.8-2.3,1.9-2.5s1.9,0.6,1.8,1.8
					C69.4,34.7,68.6,35.8,67.6,36z M67.6,32c-1,0.3-1.7,1.2-1.7,2.2c0,1.1,0.7,1.8,1.6,1.6c1-0.3,1.7-1.2,1.7-2.2
					C69.2,32.5,68.5,31.8,67.6,32"/>
				<path id="XMLID_4720_" class="st10" d="M61.8,36.8c-0.9,0.2-1.6-0.6-1.6-1.6s0.7-2,1.7-2.2c0.9-0.2,1.6,0.6,1.6,1.6
					S62.7,36.6,61.8,36.8z"/>
				<path id="XMLID_4719_" class="st11" d="M73.4,34.7c-0.9,0.2-1.6-0.6-1.6-1.6c0-1,0.7-2,1.7-2.2c0.9-0.2,1.6,0.6,1.6,1.6
					C75.1,33.6,74.3,34.6,73.4,34.7z"/>
				<path id="XMLID_4716_" class="st9" d="M73.4,35c-1,0.2-1.9-0.6-1.8-1.8c0-1.2,0.8-2.3,1.9-2.5s1.9,0.6,1.8,1.8
					C75.2,33.7,74.4,34.8,73.4,35z M73.4,31c-1,0.3-1.7,1.2-1.7,2.2c0,1.1,0.7,1.8,1.6,1.6c1-0.3,1.7-1.2,1.7-2.2
					C75.1,31.5,74.4,30.8,73.4,31"/>
				<path id="XMLID_4713_" class="st1" d="M55.9,40.8l80.2-14.2L135.5,131l-80.2,14.2L55.9,40.8z M131.1,125.3l0.5-91.9L60.3,46
					l-0.5,91.9L131.1,125.3"/>
				<path id="XMLID_4712_" class="st12" d="M67.6,35.8c-0.9,0.2-1.6-0.6-1.6-1.6s0.7-2,1.7-2.2s1.6,0.6,1.6,1.6S68.5,35.6,67.6,35.8
					z"/>
			</g>
			<path id="XMLID_4710_" class="st13" d="M67.6,35.8c-0.9,0.2-1.6-0.6-1.6-1.6s0.7-2,1.7-2.2s1.6,0.6,1.6,1.6S68.5,35.6,67.6,35.8z
				"/>
			<path id="XMLID_4709_" class="st9" d="M132.6,17.6c1.8-0.3,3.4,1.1,3.5,3.1c-0.1-0.8-0.5-2.9-3.5-2.4L59.4,31.2
				c-1.6,0.3-2.9,2-2.9,3.8l0,5.7l-0.6,103.6v0.7l-0.6,0.1l0.6-110c0-2.2,1.6-4.3,3.5-4.6L132.6,17.6z"/>
			<path id="XMLID_4708_" class="st9" d="M136.1,20.8v0.1C136.1,20.9,136.1,20.9,136.1,20.8C136.1,20.8,136.1,20.8,136.1,20.8z"/>
			<path id="XMLID_4707_" class="st9" d="M136.1,20.8"/>
			<polygon id="XMLID_4706_" class="st14" points="60.3,43.5 59.8,139.6 131.1,127 131.6,30.9 			"/>
			<polygon id="XMLID_4705_" class="st1" points="128.3,36.3 128.2,43.1 88.3,50.1 88.4,43.3 			"/>
			<polygon id="XMLID_4704_" class="st1" points="63,47.8 62.8,75.9 85.3,71.9 85.5,43.8 			"/>
			<polygon id="XMLID_4703_" class="st1" points="111.2,71.3 111.2,74.7 98.7,77 98.7,73.6 			"/>
			<polygon id="XMLID_4702_" class="st1" points="124.8,76 124.8,79.4 115.1,81.2 115.1,77.8 			"/>
			<polygon id="XMLID_4701_" class="st1" points="118.3,49 118.2,52.4 88.3,57.6 88.3,54.3 			"/>
			<polygon id="XMLID_4700_" class="st1" points="124.7,104.4 124.7,107.8 99.3,112.3 99.3,108.9 			"/>
			<linearGradient id="XMLID_15_" gradientUnits="userSpaceOnUse" x1="74.1386" y1="48.3328" x2="74.1386" y2="82.9942">
				<stop  offset="0" style="stop-color:#C1FED6"/>
				<stop  offset="1" style="stop-color:#3EB596"/>
			</linearGradient>
			<path id="XMLID_4699_" class="st15" d="M85.4,56.1l-0.1,15.8l-22.5,4l0.1-9.8c0.2-0.1,0.3-0.2,0.5-0.3l0.3-0.1
				c0.2-0.1,0.5,0,0.7,0.2c0.1,0.3,0.2,0.6,0.2,0.8c0.2,0.6,0.8,0.9,1.4,0.8c0.3,0,0.6-0.2,0.8-0.4c0.8-0.6,1.1-1.8,1.2-2.8
				c0.1-1.1,0-2.6,0.9-3.1c0.1-0.1,0.3-0.1,0.4-0.1c0.2,0,0.3,0,0.5,0c0.1,0,0.3,0,0.5,0c0.3,0,0.6-0.2,0.7-0.5
				c0.1-0.3,0.2-0.5,0.2-0.8c0.3-2.1,1.1-4.1,2.5-5.7c0.5-0.5,1-1,1.6-1.1h0.1c0.6,0,1.2,0.4,1.6,1c0.8,1.2,0.9,2.8,1.2,4.3
				c0.3,1.5,0.7,3.1,1.9,3.7c0.4,0.2,0.8,0.2,1.2,0.2c1.1-0.2,1.9-1,2-2.1c0.1-1.1-0.5-2.3,0.2-3c0.3-0.2,0.6-0.4,0.9-0.5
				C84.7,56.2,85.1,56.1,85.4,56.1z"/>
			<polygon id="XMLID_4698_" class="st1" points="88.1,110.9 88.1,114.3 62.7,118.7 62.7,115.3 			"/>
			<polygon id="XMLID_4697_" class="st1" points="113.8,78 113.8,81.4 104.8,83 104.9,79.6 			"/>
			<polygon id="XMLID_4696_" class="st1" points="127.7,54.3 127.7,57.7 88.3,64.7 88.3,61.3 			"/>
			<polygon id="XMLID_4695_" class="st1" points="74,99.2 74,102.6 62.8,104.5 62.8,101.2 			"/>
			<polygon id="XMLID_4694_" class="st16" points="127.8,111 127.8,123.3 62.6,134.8 62.7,122.5 			"/>
			
				<linearGradient id="XMLID_16_" gradientUnits="userSpaceOnUse" x1="-134.6398" y1="1890.418" x2="-241.8598" y2="1890.418" gradientTransform="matrix(1 0 0 -1 250 2013.3)">
				<stop  offset="0" style="stop-color:#4D84FA"/>
				<stop  offset="1" style="stop-color:#1E63FB"/>
			</linearGradient>
			<path id="XMLID_4693_" class="st17" d="M118.6,115.7c1.4-0.2,2.6,0.9,2.6,2.6s-1.2,3.2-2.6,3.5L71.8,130
				c-1.4,0.2-2.6-0.9-2.6-2.6c0-1.7,1.2-3.2,2.6-3.5L118.6,115.7z"/>
			<polygon id="XMLID_4692_" class="st1" points="93.8,88.6 93.8,92 62.8,97.5 62.8,94.1 			"/>
			<polygon id="XMLID_4691_" class="st1" points="98,109.1 97.9,112.5 89.5,114 89.5,110.6 			"/>
			<polygon id="XMLID_4690_" class="st1" points="122.7,90.6 122.7,94 75.3,102.3 75.3,98.9 			"/>
			<polygon id="XMLID_4689_" class="st1" points="125.6,61.7 125.6,65.1 120,66.1 120.1,62.7 			"/>
			<polygon id="XMLID_4688_" class="st1" points="97.4,73.8 97.4,77.2 62.9,83.3 62.9,79.9 			"/>
			<polygon id="XMLID_4687_" class="st1" points="127.5,82.7 127.5,86.1 95,91.8 95,88.4 			"/>
			<polygon id="XMLID_4686_" class="st1" points="79.6,84 79.6,87.4 62.8,90.4 62.9,87 			"/>
			<polygon id="XMLID_4685_" class="st1" points="82.3,104.8 82.3,108.2 62.7,111.6 62.7,108.3 			"/>
			<polygon id="XMLID_4684_" class="st1" points="103.6,79.8 103.6,83.2 80.8,87.2 80.8,83.8 			"/>
			<polygon id="XMLID_4683_" class="st1" points="118.7,62.9 118.7,66.3 88.2,71.7 88.2,68.3 			"/>
			<polygon id="XMLID_4682_" class="st1" points="127.8,47.3 127.8,50.7 119.4,52.1 119.5,48.8 			"/>
			<polygon id="XMLID_4681_" class="st1" points="127.5,68.5 127.5,71.9 112.7,74.5 112.7,71.1 			"/>
			<polygon id="XMLID_4680_" class="st1" points="127.6,96.8 127.5,100.2 83.4,108 83.5,104.6 			"/>
		</g>
	</g>
	<g id="XMLID_4462_">
		<path id="XMLID_251_" class="st1" d="M129.7,15.7c0,0,0.1,0,0.1,0c0.2,0,0.4,0,0.6,0.1l0.6,0.3l3,1.5c1.3,0.4,2.1,1.6,2.1,3.3
			l0,5.7l-0.1,15c13.5,10,22.9,20.1,36.7,41.9c15.8,24.9,2.4,48.1-20.2,61.2c-24.2,14-48.9,18.9-72.6,18.9c-8.4,0-16.7-0.6-24.8-1.7
			c-50.5-6.5-65.9-37.4-22-116.4c11.1-20,28.8-29.7,47.2-29.7c7.3,0,14.7,1.5,21.9,4.6l26.8-4.7C129.2,15.7,129.4,15.7,129.7,15.7
			 M129.7,11.7c-0.4,0-0.7,0-1.1,0.1c-0.1,0-0.1,0-0.2,0l-25.6,4.5c-7.3-2.9-14.8-4.4-22.3-4.4c-21,0-39.5,11.6-50.7,31.7
			c-24.9,44.7-32,76.3-21.8,96.5c7.2,14.2,22.5,22.7,46.7,25.8c8.7,1.1,17.2,1.7,25.3,1.7c27.6,0,52-6.4,74.6-19.4
			c14.8-8.6,24.8-20.5,28-33.6c2.7-10.9,0.5-22.4-6.4-33.2c-13-20.5-22.4-31.3-36.1-41.8l0.1-13l0-5.7c0-3.3-1.8-6.1-4.6-7.1
			l-2.8-1.4c0,0,0,0-0.1,0l-0.6-0.3c-0.1-0.1-0.3-0.1-0.4-0.2c-0.6-0.2-1.3-0.3-1.9-0.3L129.7,11.7L129.7,11.7z"/>
	</g>
</g>
</svg>
