<svg xmlns="http://www.w3.org/2000/svg" xmlns:xlink="http://www.w3.org/1999/xlink" viewBox="0 0 187 180.5"><style><![CDATA[.AC{enable-background:new}.AD{fill:#6bd8f2}]]></style><path d="M111.2 175.3c-32 0-59.1-8.2-85.2-25.9-13.5-9.1-21.7-21.6-23.1-35-1.5-15.2 5.5-31.3 20.4-46.7 32.9-34.1 59.5-50.6 81.3-50.6 22.4 0 36 17.7 44.2 30.9 17.9 28.8 20 56.9 19.7 80.5-.4 32.6-12.8 44.8-47.4 46.5-3.4.2-6.7.3-9.9.3z" class="AD"/><path d="M104.5 20.1c18.3 0 31.1 12.5 41.6 29.5 15.9 25.6 19.6 50.9 19.3 78.9-.4 31.5-12.1 41.9-44.6 43.6-3.3.2-6.5.2-9.7.2-30.9 0-57.7-7.9-83.5-25.4-24.1-16.3-33.1-45.3-2.3-77.1 35-36.2 60.2-49.7 79.2-49.7m.1-6v6-6c-22.7 0-50 16.9-83.5 51.6C10.3 76.8-2.1 94.4 0 114.7c1.5 14.4 10.1 27.6 24.4 37.2 26.6 18 54.2 26.4 86.8 26.4a172.05 172.05 0 0 0 10-.3c18.6-.9 30.3-4.7 38.2-12.2 8.1-7.8 11.9-19.3 12.1-37.3.3-24-1.9-52.6-20.2-82.1-8.6-13.8-22.8-32.3-46.7-32.3z" fill="#fff"/><defs><path id="A" d="M25.4 69.8c68.5-70.9 99.3-54.9 120.8-20.2 15.9 25.6 19.6 50.9 19.3 78.9-.4 31.5-12.1 41.9-44.6 43.6-35 1.8-64.7-5.9-93.1-25.1-24.1-16.4-33.1-45.3-2.4-77.2z"/><path id="B" d="M125.4 83.5l-47.1 27.4-2.2-1.3 47.1-27.4z"/><path id="C" d="M144.8 94.7l-31 18-2.2-1.3 31-18z"/></defs><clipPath id="D"><use xlink:href="#A"/></clipPath><g opacity=".1" clip-path="url(#D)"><linearGradient id="E" gradientUnits="userSpaceOnUse" x1="55.115" y1="118.024" x2="147.782" y2="100.357"><stop offset="0" stop-color="#132858"/><stop offset="1" stop-color="#132858" stop-opacity=".45"/></linearGradient><path d="M179.8 114.9c2 1.1 2 3 0 4.1l-56.4 32.8c-2 1.1-5.1 1.1-7.1 0l-86.1-49.7c-2-1.1-2-3 0-4.1l56.4-32.8c2-1.1 5.1-1.1 7.1 0l86.1 49.7z" fill="url(#E)"/></g><g opacity=".1"><linearGradient id="F" gradientUnits="userSpaceOnUse" x1="157.592" y1="79.68" x2="18.092" y2="133.18"><stop offset="0" stop-color="#fff"/><stop offset=".1" stop-color="#f9fafb"/><stop offset=".231" stop-color="#e9ebef"/><stop offset=".378" stop-color="#ced2dc"/><stop offset=".538" stop-color="#a8b0c2"/><stop offset=".708" stop-color="#78849f"/><stop offset=".884" stop-color="#3e4f76"/><stop offset="1" stop-color="#132858"/></linearGradient><path d="M25.4 69.8c68.5-70.9 99.3-54.9 120.8-20.2 15.9 25.6 19.6 50.9 19.3 78.9-.4 31.5-12.1 41.9-44.6 43.6-35 1.8-64.7-5.9-93.1-25.1-24.1-16.4-33.1-45.3-2.4-77.2z" fill="url(#F)"/></g><path d="M181.3 107.6c-.1.6-.5 1.2-1 1.6a.47.47 0 0 0-.5.5v2c.6-.3 1-.8 1.3-1.3.1-.3.2-.7.2-1v-2c0 .1-.1.2 0 .2-.1.1 0 0 0 0z" fill="#dfeafe"/><defs><path id="G" d="M28.7 92.7v-2.3c0 .7.5 1.5 1.5 2.1v2.3c-1-.6-1.5-1.3-1.5-2.1z"/></defs><clipPath id="H"><use xlink:href="#G"/></clipPath><g clip-path="url(#H)"><path d="M30.2 92.6v2.3c-1-.6-1.5-1.3-1.5-2.1v-2.3c0 .8.5 1.5 1.5 2.1" fill="#97b9fd"/></g><linearGradient id="I" gradientUnits="userSpaceOnUse" x1="104.974" y1="163.904" x2="104.974" y2="71.317"><stop offset="0" stop-color="#dbdfe6"/><stop offset="1" stop-color="#fff"/></linearGradient><path d="M179.8 105.4c2 1.1 2 3 0 4.1l-56.4 32.8c-2 1.1-5.1 1.1-7.1 0L30.2 92.6c-2-1.1-2-3 0-4.1l56.4-32.8c2-1.1 5.1-1.1 7.1 0l86.1 49.7z" fill="url(#I)"/><linearGradient id="J" gradientUnits="userSpaceOnUse" x1="177.441" y1="127.033" x2="110.685" y2="127.033"><stop offset="0" stop-color="#dfeafe"/><stop offset="1" stop-color="#97b9fd"/></linearGradient><path d="M179.8 109.5v2.2l-56.4 32.8v-2.2z" fill="url(#J)"/><linearGradient id="K" gradientUnits="userSpaceOnUse" x1="122.414" y1="118.559" x2="21.647" y2="118.559"><stop offset="0" stop-color="#97b9fd"/><stop offset="1" stop-color="#4d84fa"/></linearGradient><path d="M116.3 142.3v2.2L30.2 94.8v-2.2z" fill="url(#K)"/><path d="M122.9 144.8c.2-.1.3-.2.5-.2v-2.3c-1.1.6-2.3.9-3.6.9-1.2 0-2.4-.3-3.5-.9v2.3c1.9 1 4.6 1.1 6.6.2z" fill="#a6c8ff"/><g opacity=".5"><linearGradient id="L" gradientUnits="userSpaceOnUse" x1="104.974" y1="143.171" x2="104.974" y2="54.831"><stop offset="0" stop-color="#1e63fb"/><stop offset="1" stop-color="#c0d5fd"/></linearGradient><path d="M90.1 55.7c1.1 0 2.2.2 3.1.7l86.1 49.7c.7.4 1.1.9 1.1 1.3 0 .5-.4.9-1 1.3L123 141.6a6.99 6.99 0 0 1-6.3 0L30.6 91.9c-.7-.4-1.1-.9-1.1-1.3s.4-.9 1-1.3L87 56.4c.9-.5 2-.8 3.1-.7m0-.9c-1.2 0-2.5.3-3.5.9L30.2 88.5c-2 1.1-2 3 0 4.1l86.1 49.7c2.2 1.1 4.9 1.1 7.1 0l56.4-32.8c2-1.1 2-3 0-4.1L93.7 55.7c-1.1-.6-2.4-.9-3.6-.9z" fill="url(#L)"/></g><path d="M172.7 106.4c1 .6 1 1.6 0 2.2l-51.1 29.7c-1.2.6-2.6.6-3.8 0L37.2 91.6c-1-.6-1-1.6 0-2.2l51.1-29.7c1.2-.6 2.6-.6 3.8 0l80.6 46.7z" class="AD"/><path d="M97.6 106.1l13.9 8-13.8 8-13.9-8 13.8-8z" fill="#fff"/><path d="M108 114.1l-10.3 6-10.4-6 10.3-6z" fill="#fd9ab6"/><g opacity=".8"><linearGradient id="M" gradientUnits="userSpaceOnUse" x1="110.265" y1="125.468" x2="118.506" y2="87.287"><stop offset="0" stop-color="#c0d5fd"/><stop offset="1" stop-color="#f3f4f7"/></linearGradient><path d="M133.2 88l-31 18-2.3-1.3 31.1-18z" fill="url(#M)"/><linearGradient id="N" gradientUnits="userSpaceOnUse" x1="118.59" y1="127.264" x2="126.83" y2="89.083"><stop offset="0" stop-color="#c0d5fd"/><stop offset="1" stop-color="#f3f4f7"/></linearGradient><path d="M140.9 92.4l-31 18.1-2.2-1.3 31-18z" fill="url(#N)"/><linearGradient id="O" gradientUnits="userSpaceOnUse" x1="95.203" y1="122.218" x2="103.443" y2="84.037"><stop offset="0" stop-color="#c0d5fd"/><stop offset="1" stop-color="#f3f4f7"/></linearGradient><use xlink:href="#B" fill="url(#O)"/><linearGradient id="P" gradientUnits="userSpaceOnUse" x1="120.19" y1="127.61" x2="128.43" y2="89.429"><stop offset="0" stop-color="#c0d5fd"/><stop offset="1" stop-color="#f3f4f7"/></linearGradient><path d="M148.7 96.9l-47.2 27.4-2.2-1.3 47.2-27.4z" fill="url(#P)"/><linearGradient id="Q" gradientUnits="userSpaceOnUse" x1="122.749" y1="128.162" x2="130.989" y2="89.981"><stop offset="0" stop-color="#c0d5fd"/><stop offset="1" stop-color="#f3f4f7"/></linearGradient><use xlink:href="#C" fill="url(#Q)"/><linearGradient id="R" gradientUnits="userSpaceOnUse" x1="99.368" y1="123.116" x2="107.609" y2="84.935"><stop offset="0" stop-color="#c0d5fd"/><stop offset="1" stop-color="#f3f4f7"/></linearGradient><path d="M129.3 85.7l-47.2 27.4-2.1-1.2 47.1-27.5z" fill="url(#R)"/><linearGradient id="S" gradientUnits="userSpaceOnUse" x1="122.227" y1="130.866" x2="130.468" y2="92.685"><stop offset="0" stop-color="#c0d5fd"/><stop offset="1" stop-color="#f3f4f7"/></linearGradient><use xlink:href="#C" x="-7.8" y="-4.5" fill="url(#S)"/><linearGradient id="T" gradientUnits="userSpaceOnUse" x1="91.044" y1="121.32" x2="99.284" y2="83.139"><stop offset="0" stop-color="#c0d5fd"/><stop offset="1" stop-color="#f3f4f7"/></linearGradient><path d="M121.5 81.3l-47.1 27.3-2.2-1.2L119.3 80z" fill="url(#T)"/><linearGradient id="U" gradientUnits="userSpaceOnUse" x1="124.349" y1="128.508" x2="132.59" y2="90.327"><stop offset="0" stop-color="#c0d5fd"/><stop offset="1" stop-color="#f3f4f7"/></linearGradient><path d="M152.5 99.1l-47.1 27.4-2.2-1.2 47.1-27.4z" fill="url(#U)"/><linearGradient id="V" gradientUnits="userSpaceOnUse" x1="97.512" y1="111.506" x2="105.752" y2="73.326"><stop offset="0" stop-color="#c0d5fd"/><stop offset="1" stop-color="#f3f4f7"/></linearGradient><use xlink:href="#B" x="31" y="17.9" fill="url(#V)"/></g><linearGradient id="W" gradientUnits="userSpaceOnUse" x1="61.685" y1="96.476" x2="82.744" y2="96.476"><stop offset="0" stop-color="#132858"/><stop offset="1" stop-color="#132858" stop-opacity=".7"/></linearGradient><path d="M82.7 91.6l-18.8 11-2.2-1.3 18.8-10.9z" fill="url(#W)"/><linearGradient id="X" gradientUnits="userSpaceOnUse" x1="65.558" y1="98.715" x2="86.617" y2="98.715"><stop offset="0" stop-color="#132858"/><stop offset="1" stop-color="#132858" stop-opacity=".7"/></linearGradient><path d="M86.6 93.9l-18.8 10.9-2.2-1.3 18.8-10.9z" fill="url(#X)"/><linearGradient id="Y" gradientUnits="userSpaceOnUse" x1="50.066" y1="89.76" x2="71.125" y2="89.76"><stop offset="0" stop-color="#132858"/><stop offset="1" stop-color="#132858" stop-opacity=".7"/></linearGradient><path d="M71.1 84.9l-18.8 11-2.2-1.3 18.8-10.9z" fill="url(#Y)"/><linearGradient id="Z" gradientUnits="userSpaceOnUse" x1="53.939" y1="92.013" x2="74.998" y2="92.013"><stop offset="0" stop-color="#132858"/><stop offset="1" stop-color="#132858" stop-opacity=".7"/></linearGradient><path d="M75 87.2L56.1 98.1l-2.2-1.3 18.9-10.9z" fill="url(#Z)"/><linearGradient id="a" gradientUnits="userSpaceOnUse" x1="57.811" y1="94.238" x2="78.871" y2="94.238"><stop offset="0" stop-color="#132858"/><stop offset="1" stop-color="#132858" stop-opacity=".7"/></linearGradient><path d="M78.9 89.4L60 100.3l-2.2-1.2 18.8-11z" fill="url(#a)"/><linearGradient id="b" gradientUnits="userSpaceOnUse" x1="93.3" y1="109.843" x2="139.721" y2="82.924"><stop offset="0" stop-color="#132858"/><stop offset="1" stop-color="#132858" stop-opacity=".7"/></linearGradient><path d="M133.2 88l-31 18-2.3-1.3 31.1-18z" fill="url(#b)"/><linearGradient id="c" gradientUnits="userSpaceOnUse" x1="101.093" y1="118.754" x2="147.514" y2="91.836"><stop offset="0" stop-color="#132858"/><stop offset="1" stop-color="#132858" stop-opacity=".7"/></linearGradient><use xlink:href="#C" x="-3.9" y="-2.2" fill="url(#c)"/><linearGradient id="d" gradientUnits="userSpaceOnUse" x1="89.408" y1="103.131" x2="135.829" y2="76.212"><stop offset="0" stop-color="#132858"/><stop offset="1" stop-color="#132858" stop-opacity=".7"/></linearGradient><use xlink:href="#B" fill="url(#d)"/><linearGradient id="e" gradientUnits="userSpaceOnUse" x1="75.929" y1="110.918" x2="122.35" y2="83.999"><stop offset="0" stop-color="#132858"/><stop offset="1" stop-color="#132858" stop-opacity=".7"/></linearGradient><use xlink:href="#B" x="27.1" y="15.7" fill="url(#e)"/><linearGradient id="f" gradientUnits="userSpaceOnUse" x1="73.974" y1="112.075" x2="120.395" y2="85.156"><stop offset="0" stop-color="#132858"/><stop offset="1" stop-color="#132858" stop-opacity=".7"/></linearGradient><use xlink:href="#B" x="31" y="17.9" fill="url(#f)"/><linearGradient id="g" gradientUnits="userSpaceOnUse" x1="108.87" y1="136.692" x2="155.291" y2="109.773"><stop offset="0" stop-color="#132858"/><stop offset="1" stop-color="#132858" stop-opacity=".7"/></linearGradient><path d="M149.9 114.2L117 133.3l-2.2-1.3 32.9-19.1z" fill="url(#g)"/><linearGradient id="h" gradientUnits="userSpaceOnUse" x1="95.248" y1="113.198" x2="141.669" y2="86.279"><stop offset="0" stop-color="#132858"/><stop offset="1" stop-color="#132858" stop-opacity=".7"/></linearGradient><path d="M137 90.2l-31 18-2.2-1.2 31-18.1z" fill="url(#h)"/><linearGradient id="i" gradientUnits="userSpaceOnUse" x1="87.469" y1="99.785" x2="133.89" y2="72.866"><stop offset="0" stop-color="#132858"/><stop offset="1" stop-color="#132858" stop-opacity=".7"/></linearGradient><path d="M121.5 81.3l-47.1 27.4-2.2-1.3L119.3 80z" fill="url(#i)"/><linearGradient id="j" gradientUnits="userSpaceOnUse" x1="99.14" y1="119.91" x2="145.561" y2="92.991"><stop offset="0" stop-color="#132858"/><stop offset="1" stop-color="#132858" stop-opacity=".7"/></linearGradient><use xlink:href="#C" fill="url(#j)"/><linearGradient id="k" gradientUnits="userSpaceOnUse" x1="89.896" y1="75.802" x2="89.896" y2="30.361"><stop offset="0" stop-color="#fff"/><stop offset="1" stop-color="#fff" stop-opacity="0"/></linearGradient><path d="M115.2 23.4H70.7l1.8 4.7-7.9 5.3v44L90 92.1l9.9-5.8 15.2-8.7h.1z" opacity=".53" fill="url(#k)" class="AC"/><linearGradient id="l" gradientUnits="userSpaceOnUse" x1="91.355" y1="106.486" x2="137.776" y2="79.568"><stop offset="0" stop-color="#132858"/><stop offset="1" stop-color="#132858" stop-opacity=".7"/></linearGradient><path d="M129.3 85.7l-47.2 27.4-2.1-1.2 47.1-27.4z" fill="url(#l)"/><linearGradient id="m" gradientUnits="userSpaceOnUse" x1="101.085" y1="123.267" x2="147.506" y2="96.348"><stop offset="0" stop-color="#132858"/><stop offset="1" stop-color="#132858" stop-opacity=".7"/></linearGradient><path d="M148.6 96.9l-47.1 27.4-2.2-1.3 47.2-27.3z" fill="url(#m)"/><path d="M89.7 62.9l-15.1 8.7-10 5.8 25.5 14.7 9.9-5.8 15.2-8.7z" opacity=".15" fill="#132858" class="AC"/><g fill="#fff" class="AC"><path d="M89.7 62.9L64.6 77.4l25.5 14.7 25.1-14.5z" opacity=".5"/><path d="M89.7 63.5l24.4 14.1-24.1 14-24.4-14.2 24.1-13.9m0-.6L64.6 77.4 90 92.1l25.1-14.5-25.4-14.7z" opacity=".2"/><path d="M89.7 64l23.4 13.5-23 13.5-23.5-13.6L89.7 64m0-1.1L64.6 77.4 90 92.1l25.1-14.5-25.4-14.7z" opacity=".2"/><path d="M89.7 64.6l22.4 12.9-22 12.9-22.5-13 22.1-12.8m0-1.7L64.6 77.4 90 92.1l25.1-14.5-25.4-14.7z" opacity=".2"/></g><linearGradient id="n" gradientUnits="userSpaceOnUse" x1="106.93" y1="133.345" x2="153.351" y2="106.427"><stop offset="0" stop-color="#132858"/><stop offset="1" stop-color="#132858" stop-opacity=".7"/></linearGradient><path d="M146 111.9L113.2 131l-2.3-1.3 32.9-19z" fill="url(#n)"/><g fill="none" stroke-linecap="round" stroke-linejoin="round" stroke-dasharray="0,7.125"><path d="M89.8 27.3v46.3" stroke="#fff" stroke-width="3.5"/><path d="M89.8 27.3v46.3" stroke="#63dbfd" stroke-width="2.5"/></g><linearGradient id="o" gradientUnits="userSpaceOnUse" x1="64.976" y1="23.364" x2="115.037" y2="23.364"><stop offset="0" stop-color="#bcd2fc"/><stop offset="1" stop-color="#e3edfd"/></linearGradient><path d="M112.8 21.1v.5L89.9 8.4 83.6 12l-16.7 9.7v-.6H65v2.7l25.1 14.6L115 23.8v-2.7z" fill="url(#o)"/><linearGradient id="p" gradientUnits="userSpaceOnUse" x1="115.491" y1="28.682" x2="74.491" y2="16.432"><stop offset="0" stop-color="#fff"/><stop offset="1" stop-color="#eaf1fe"/></linearGradient><path d="M89.9 6.6L115 21.1 90.1 35.6 71.5 24.8 65 21.1l18.7-10.8 6.2-3.7z" fill="url(#p)"/><path d="M111.8 21.1L90.1 33.7 68.2 21.1 89.9 8.4z" class="AD"/><g fill="#fff"><path d="M181.3 107.6c-.1 0-.1 0 0 0-.1 0-.1 0 0 0m0-4c-1.1 0-2.1.4-2.8 1.2-.4.4-.7.9-.9 1.4-.2.4-.3.9-.3 1.4 0 .4.1.8.2 1.1.5 1.7 2 2.9 3.8 2.9 1.9 0 3.5-1.3 3.9-3 .1-.3.1-.6.1-1 0-2.2-1.8-4-4-4z"/><path d="M89.9 6.6L115 21.1v.5c12.9 3.8 22.7 14.5 31.1 28 9.5 15.3 14.7 30.6 17.2 46.3l16.4 9.5c1 .6 1.5 1.3 1.5 2.1 0 .1 0 .3-.1.4 0-.1 0-.1.1-.2v-.2 2c0 .3 0 .7-.2 1-.3.6-.7 1.1-1.3 1.3v-2 2l-2.8 1.6 2.7 1.6c2 1.1 2 3 0 4.1l-14.3 8.3v1.1c-.4 31.5-12.1 41.9-44.6 43.6-3.3.2-6.5.2-9.7.2-30.9 0-57.7-7.9-83.5-25.4-24.1-16.3-33.1-45.3-2.3-77.1 14.7-15.2 27.7-26.4 39.2-34.3v-2.1l7.9-5.2-7.3-4.4V21l18.6-10.8 6.3-3.6m91.2 101.6c-.1.1-.1.3-.2.4.1-.2.2-.3.2-.4s0-.1 0 0c0-.1 0-.1 0 0m-.9 1c.3-.2.5-.4.7-.7-.2.3-.4.5-.7.7m-.4.5c0-.1 0-.2.1-.2l-.1.1v.1M89.9 2.6c-.7 0-1.4.2-2 .6l-6.3 3.7-18.2 10.5c-1.4.6-2.4 2-2.4 3.7v2.8c0 1.4.8 2.7 2 3.5l1.9 1.1-2.5 1.7c-1.1.7-1.8 2-1.8 3.3C49 41.6 36.2 52.9 22.5 67 7.5 82.6.4 99 2 114.5c1.4 13.8 9.8 26.5 23.5 35.7 26.2 17.8 53.5 26 85.7 26 3.2 0 6.5-.1 9.9-.3 18-.9 29.4-4.5 36.9-11.7 7.6-7.2 11.1-18 11.4-34.7l12.4-7.2c2.2-1.3 3.5-3.3 3.5-5.6 0-1.3-.5-2.5-1.3-3.6.3-.4.6-.8.8-1.3 0-.1.1-.1.1-.2.3-.8.5-1.6.4-2.5v-1.9c0-.3 0-.5-.1-.8-.3-1.9-1.5-3.6-3.5-4.7L167 93.4c-2.9-16.7-8.6-31.7-17.4-45.9-9.8-15.9-20-25.2-31.7-29.2-.3-.3-.5-.5-.9-.7L91.9 3.1c-.6-.4-1.3-.5-2-.5z"/></g></svg>