<svg xmlns="http://www.w3.org/2000/svg" xmlns:xlink="http://www.w3.org/1999/xlink" viewBox="0 0 187 180.5"><style><![CDATA[.Z{enable-background:new}.a{fill:#94b6fb}]]></style><path d="M89.7 177.2c-13.5 0-26.6-3.7-37.1-10.5-14-9.2-26.4-21.9-34.8-36-8.9-14.9-13-30.4-11.9-44.7C7.1 70.5 15 49.1 46.3 34.9 78 20.6 99.6 11.8 131 11.8h2.1c21 .3 35.9 9.2 43.2 25.9 8.8 20.2 4.4 46.2.9 60-5 19.8-13.8 38.8-22.6 48.5-18.2 20-41.2 31-64.9 31z" fill="#7bdb94"/><path d="M131 14.8h2c71.8.9 42.5 103.7 19.3 129.3-19.3 21.4-42.2 30-62.6 30-13.4 0-25.7-3.7-35.4-10-46-30-71.1-97.4-6.8-126.5C78.2 23.8 99.8 14.8 131 14.8m0-6c-32 0-53.8 8.8-85.9 23.4C12.5 47 4.1 69.5 2.9 85.8c-1.1 15 3.1 31 12.4 46.5 8.6 14.4 21.3 27.5 35.7 36.9 10.9 7.1 24.6 11 38.7 11 24.5 0 48.3-11.4 67-32 9.1-10 18.2-29.6 23.3-49.8 8.2-32.8 2.9-52.9-1.1-61.9-5.4-12.4-17.8-27.3-45.9-27.7h-2z" fill="#fff"/><g opacity=".1"><linearGradient id="A" gradientUnits="userSpaceOnUse" x1="169.982" y1="72.253" x2="21.482" y2="122.753"><stop offset="0" stop-color="#fff"/><stop offset=".097" stop-color="#f9f9fb"/><stop offset=".229" stop-color="#e7eaee"/><stop offset=".38" stop-color="#cbd0da"/><stop offset=".547" stop-color="#a3abbe"/><stop offset=".726" stop-color="#707d9a"/><stop offset=".913" stop-color="#32456e"/><stop offset="1" stop-color="#132858"/></linearGradient><path d="M152.3 144.2c23.2-25.6 52.4-128.4-19.3-129.3-32.3-.4-54.1 8.6-85.5 22.8-64.3 29.1-39.2 96.5 6.8 126.5 24.5 15.9 66 15.3 98-20z" fill="url(#A)"/></g><linearGradient id="B" gradientUnits="userSpaceOnUse" x1="78.596" y1="114.23" x2="83.477" y2="132.444"><stop offset=".17" stop-color="#122549" stop-opacity="0"/><stop offset=".88" stop-color="#122549" stop-opacity=".7"/></linearGradient><path d="M100.3 105.7l43.7 20.9c.2.1.3.4.2.6l-.3.3-86 15.2c-.6.1-1.2 0-1.8-.3l-37.5-19.3 81.7-17.4z" opacity=".3" fill="url(#B)" class="Z"/><linearGradient id="C" gradientUnits="userSpaceOnUse" x1="59.291" y1="58.347" x2="190.359" y2="58.347"><stop offset="0" stop-color="#94b6fb"/><stop offset="1" stop-color="#dfeafe"/></linearGradient><path d="M138.4 14.2V7.9l2.2-1.1-3.7-1.8-.6-.3c-.2-.1-.4-.1-.7-.1h-.7L57.6 18.3l80.2 93.8.6-97.9z" fill="url(#C)"/><linearGradient id="D" gradientUnits="userSpaceOnUse" x1="95.412" y1="26.661" x2="95.412" y2="136.724"><stop offset="0" stop-color="#94b6fb"/><stop offset="1" stop-color="#4777d0"/></linearGradient><path d="M53.8 23.2l-.1 6-.6 110.2 3.8 1.9.5-2.7 80.3-14.1V60.1l-83.9-37z" fill="url(#D)"/><path d="M57.6 18.3h-.1c-.3 0-.5.1-.7.2s-.5.2-.7.4c-.9.6-1.6 1.5-2 2.6l-.2.8-.1.7 76.1 37.1v-6.6L57.6 18.3z" fill="#aecefc"/><linearGradient id="E" gradientUnits="userSpaceOnUse" x1="24.868" y1="18.824" x2="142.34" y2="18.824"><stop offset="0" stop-color="#94b6fb"/><stop offset="1" stop-color="#dfeafe"/></linearGradient><path d="M138.7 6.6c2-.4 3.7 1.2 3.7 3.6v6L57.6 31.1v-6c0-2.3 1.7-4.5 3.7-4.9l77.4-13.6z" fill="url(#E)"/><path d="M63.7 27.2c-1.1.2-2-.7-1.9-1.9 0-1.2.9-2.4 2-2.6s2 .7 1.9 1.9-.9 2.4-2 2.6zm.1-4.3c-1 .3-1.8 1.2-1.8 2.3s.7 1.9 1.7 1.7c1-.3 1.8-1.2 1.8-2.3s-.8-1.9-1.7-1.7m6.1 3.2c-1.1.2-2-.7-1.9-1.9 0-1.2.9-2.4 2-2.6s2 .7 1.9 1.9-.9 2.4-2 2.6zm0-4.3c-1 .3-1.8 1.2-1.8 2.3s.8 1.9 1.7 1.7c1-.3 1.8-1.2 1.8-2.3s-.7-1.9-1.7-1.7" class="a"/><path d="M63.7 26.9c-1 .2-1.7-.6-1.7-1.7s.8-2.1 1.8-2.3 1.7.6 1.7 1.7-.8 2.1-1.8 2.3z" fill="#f76548"/><path d="M76 24.7c-1 .2-1.7-.6-1.7-1.7s.8-2.1 1.8-2.3 1.7.6 1.7 1.7-.8 2.2-1.8 2.3z" fill="#78cc64"/><path d="M76 25c-1.1.2-2-.7-1.9-1.9 0-1.2.9-2.4 2-2.6s2 .7 1.9 1.9c0 1.2-.9 2.4-2 2.6zm.1-4.2c-1 .3-1.8 1.2-1.8 2.3S75 25 76 24.8c1-.3 1.8-1.2 1.8-2.3 0-1.2-.8-1.9-1.7-1.7" class="a"/><path d="M137.5 23.3l-.6 97-75.2 13.3.5-97z" fill="#8de0ba" stroke="#fff" stroke-width="2.794" stroke-miterlimit="10"/><g fill="#fafcff"><path d="M57.6 31.1l84.7-14.9-.7 110.2-84.7 14.9.7-110.2zm79.3 89.2l.6-97-75.3 13.3-.6 97 75.3-13.3"/><use xlink:href="#H"/></g><use xlink:href="#H" fill="#eac242"/><path d="M138.6 6.6c1.9-.3 3.5 1.1 3.7 3.3-.1-.8-.5-3.1-3.7-2.6L61.3 21c-1.7.3-3.1 2.1-3.1 4v6l-.6 110.1-.6.1.7-116.2c0-2.3 1.7-4.5 3.7-4.9l77.2-13.5zm3.7 3.5v.1-.1z" class="a"/><g opacity=".6"><g opacity=".2" fill="#132858"><path d="M70.2 45.6l-.4 73 60.7-10.7.4-73-60.7 10.7z"/><path d="M138.2 49.6h-8.4l.5-13.9 9.3 4.5zm-68.5 69l9.4 4.7 1.9-7.6z"/></g><path d="M70.2 45.6l41.7 20.1-32.8 57.6-9.4-4.7z" opacity=".25" fill="#132858" class="Z"/></g><linearGradient id="F" gradientUnits="userSpaceOnUse" x1="145.975" y1="19.506" x2="67.4" y2="153.257"><stop offset="0" stop-color="#94b6fb"/><stop offset="1" stop-color="#4777d0"/></linearGradient><path d="M139.2 112l-59.6 10.6.4-71.9 59.6-10.5-.4 71.8" fill="url(#F)"/><path d="M82.1 52.5l-.4 67.6 55.5-9.8.4-67.7-55.5 9.9z" fill="#8de0ba"/><g fill="#fff"><path d="M134.4 106.3l-48.7 8.6v-9.2l48.7-8.6v9.2" opacity=".4" class="Z"/><path d="M134.4 94.3l-48.6 8.5V100l48.6-8.5zm0-5.8L85.8 97v-2.7l48.6-8.6zm0-5.8l-48.6 8.6v-2.8l48.6-8.6zm0-5.8l-48.6 8.6v-2.8l48.6-8.5zm.1-5.7l-48.7 8.5v-2.8l48.7-8.5z"/><path d="M134.5 65l-48.7 8.6.1-17.1 48.6-8.6z" class="Z"/></g><defs><path id="G" d="M134.5 65l-48.7 8.6.1-17.1 48.6-8.6z"/><path id="H" d="M69.9 25.8c-1 .2-1.7-.6-1.7-1.7S69 22 70 21.8s1.7.6 1.7 1.7-.8 2.1-1.8 2.3z"/></defs><clipPath id="I"><use xlink:href="#G"/></clipPath><linearGradient id="J" gradientUnits="userSpaceOnUse" x1="120.354" y1="64.437" x2="79.555" y2="54.065"><stop offset="0" stop-color="#c1fed6"/><stop offset="1" stop-color="#3eb596"/></linearGradient><path d="M130.2 46.9L92.3 73 84 75.2l.2-20.4z" opacity=".2" clip-path="url(#I)" fill="url(#J)"/><path d="M135.4 4.7h.1c.2 0 .5 0 .7.1l3.8 1.9c1.3.4 2.3 1.7 2.3 3.5v5.4c59.8 9.5 32.2 104.1 10 128.6-19.3 21.4-42.2 30-62.6 30-13.4 0-25.7-3.7-35.4-10-46-30-71.1-97.4-6.8-126.5 2.1-1 4.2-1.9 6.2-2.8V23.1l.4.2-.5-.2.1-.7.2-.8c.4-1.1 1.1-2 2-2.6.2-.1.5-.3.7-.4s.5-.2.7-.2h.1l77.2-13.6c.4-.1.6-.1.8-.1m0-4c-.4 0-.7 0-1.1.1h-.2L56.8 14.4c-.6.1-1.2.3-1.8.5-.4.2-.8.4-1.1.6-.1 0-.1.1-.2.1-1.6 1.1-2.9 2.8-3.5 4.6 0 .1 0 .2-.1.2l-.2.8c-.1.2-.1.4-.1.7l-.1.7v9.6l-3.8 1.7c-31.7 14.5-39.8 36.3-41 52C3.8 100.5 8 116.1 17 131.2c8.5 14.2 21 27.1 35.1 36.3 10.6 6.9 23.9 10.7 37.6 10.7 24 0 47.2-11.1 65.5-31.4 8.5-9.4 17.2-27.8 22.3-46.9 6-22.8 6.4-43.8 1-59.1S162 15.7 146.3 12.2v-2.1c0-3.4-1.9-6.2-4.7-7.2l-3-1.5h-.1l-.6-.3c-.1-.1-.3-.1-.4-.2a6.28 6.28 0 0 0-1.9-.3l-.2.1z" fill="#fff"/></svg>