<?xml version="1.0" encoding="utf-8"?>
<!-- Generator: Adobe Illustrator 19.0.0, SVG Export Plug-In . SVG Version: 6.00 Build 0)  -->
<svg version="1.1" id="Capa_1" xmlns="http://www.w3.org/2000/svg" xmlns:xlink="http://www.w3.org/1999/xlink" x="0px" y="0px"
	 viewBox="-400 402.2 97.8 97.8" style="enable-background:new -400 402.2 97.8 97.8;" xml:space="preserve">
<style type="text/css">
	.st0{fill:#FFFFFF;}
</style>
<path class="st0" d="M-351.1,402.2c-27,0-48.9,21.9-48.9,48.9c0,27,21.9,48.9,48.9,48.9c27,0,48.9-21.9,48.9-48.9
	S-324.1,402.2-351.1,402.2z M-330.3,442.5c0,0.4,0,0.8,0,1.2c0,14.6-11.1,29.7-29.7,29.7c-5.7,0-11.2-1.6-16-4.7
	c-0.1-0.1-0.1-0.2-0.1-0.3c0-0.1,0.2-0.2,0.3-0.2c0.8,0.1,1.6,0.1,2.4,0.1c4.4,0,8.6-1.4,12.2-4c-4.2-0.4-7.9-3.2-9.2-7.3
	c0-0.1,0-0.2,0.1-0.2c0.1-0.1,0.2-0.1,0.2-0.1c1.2,0.2,2.4,0.2,3.5,0.1c-4.4-1.4-7.5-5.5-7.5-10.1l0-0.1c0-0.1,0.1-0.2,0.1-0.2
	c0.1,0,0.2,0,0.2,0c1.1,0.6,2.4,1,3.7,1.2c-2.5-2-4-5-4-8.3c0-1.9,0.5-3.7,1.4-5.3c0-0.1,0.1-0.1,0.2-0.1c0.1,0,0.2,0,0.2,0.1
	c5.2,6.3,12.7,10.2,20.8,10.7c-0.1-0.7-0.2-1.4-0.2-2.1c0-5.9,4.8-10.6,10.6-10.6c2.9,0,5.7,1.2,7.7,3.2c2.2-0.5,4.4-1.3,6.4-2.5
	c0.1-0.1,0.2,0,0.3,0c0.1,0.1,0.1,0.2,0.1,0.3c-0.7,2.1-2,3.9-3.7,5.2c1.7-0.3,3.3-0.8,4.8-1.5c0.1,0,0.2,0,0.3,0.1
	c0.1,0.1,0.1,0.2,0,0.3C-326.6,439.2-328.3,441-330.3,442.5z"/>
</svg>
