<?xml version="1.0" encoding="utf-8"?>
<!-- Generator: Adobe Illustrator 19.0.0, SVG Export Plug-In . SVG Version: 6.00 Build 0)  -->
<svg version="1.1" id="Capa_1" xmlns="http://www.w3.org/2000/svg" xmlns:xlink="http://www.w3.org/1999/xlink" x="0px" y="0px"
	 viewBox="-400 402.2 97.8 97.8" style="enable-background:new -400 402.2 97.8 97.8;" xml:space="preserve">
<style type="text/css">
	.st0{fill:#FFFFFF;}
</style>
<path class="st0" d="M-351.1,402.2c-27,0-48.9,21.9-48.9,48.9c0,27,21.9,48.9,48.9,48.9c27,0,48.9-21.9,48.9-48.9
	S-324.1,402.2-351.1,402.2z M-338.1,434.3l-4.7,0c-3.7,0-4.4,1.8-4.4,4.4v5.7h8.8l0,8.9h-8.8v22.9h-9.2v-22.9h-7.7v-8.9h7.7v-6.6
	c0-7.6,4.7-11.8,11.5-11.8l6.9,0L-338.1,434.3L-338.1,434.3z"/>
</svg>
