<svg xmlns="http://www.w3.org/2000/svg" viewBox="0 0 187 180.5"><style><![CDATA[.j{enable-background:new}.k{opacity:.25}.l{fill:#dd623b}]]></style><path d="M66 177c-23.6 0-38.7-4.8-47.5-15.2-7.5-8.9-10-21.8-7.2-38.4C16.8 90.1 24.1 72.2 42.8 47 55.9 29.2 66.7 18.2 80 18.2c9.3 0 19.2 5.4 31.1 13.6 17.7 12.1 33.4 25.6 52.4 51.6 10.8 14.8 15.2 29.2 12.8 41.8-2.1 11-9.1 20.2-20.8 27.5-27.6 17.3-48.1 23.2-84.3 24.2-1.7 0-3.5.1-5.2.1z" fill="#4d84fa"/><path d="M79.9 21.1c8.3 0 17.2 4.7 29.4 13.1 18 12.3 33.3 25.8 51.7 50.9 19.1 26.2 17.1 49.9-7.2 65-26 16.3-46 22.7-82.8 23.7-1.7 0-3.4.1-5.2.1-31.9 0-58.6-8.8-51.8-50.1 5.2-31.7 12-49.5 30.9-75.1 14.4-19.3 24.1-27.6 35-27.6m.1-6v6-6c-14.6 0-26 11.5-39.7 30-19 25.7-26.4 43.9-32 77.7-2.9 17.5-.2 31.3 7.9 40.8C25.6 174.8 41.4 180 66 180c1.7 0 3.5 0 5.3-.1 36.4-1 58-7.2 85.8-24.6 12.4-7.8 19.8-17.7 22.1-29.5 2.6-13.4-2-28.7-13.3-44.2-19.3-26.4-35.2-40-53.2-52.3C95.6 17.5 87.3 15.1 80 15.1z" fill="#fff"/><g opacity=".1"><linearGradient id="A" gradientUnits="userSpaceOnUse" x1="146.541" y1="82.243" x2="21.541" y2="113.243"><stop offset="0" stop-color="#fff"/><stop offset=".091" stop-color="#f7f8fa"/><stop offset=".229" stop-color="#e3e5eb"/><stop offset=".397" stop-color="#c1c6d3"/><stop offset=".587" stop-color="#919bb1"/><stop offset=".795" stop-color="#566587"/><stop offset="1" stop-color="#132858"/></linearGradient><path d="M153.9 150.2c-26 16.3-46 22.7-82.8 23.7-34.1.9-64.1-6.6-57-50 5.2-31.7 12-49.5 30.9-75.1 24.9-33.9 36-33.9 64.2-14.5 18 12.3 33.3 25.8 51.7 50.9 19.3 26.1 17.3 49.8-7 65z" fill="url(#A)"/></g><linearGradient id="B" gradientUnits="userSpaceOnUse" x1="131.856" y1="45.685" x2="131.856" y2="76.167"><stop offset="0" stop-color="#94b6fb"/><stop offset="1" stop-color="#4777d0"/></linearGradient><path d="M146 54.6c-.4-2.4-1.5-4.7-3-6.7-.3-.4-.6-.7-.9-1s-.7-.6-1-.9-.7-.5-1.1-.7c-1.2-.7-2.4-1.2-3.8-1.4-.4-.1-.9-.1-1.4-.2-1-.1-2 0-2.9.2-7.9 1.5-14.4 10.1-14.4 19.2 0 6.3 3.1 11.2 7.5 13.2 2.2.9 4.5 1.2 6.8.7l1.5-.3a13.9 13.9 0 0 0 2.8-1.2c1.4-.8 2.6-1.7 3.7-2.8l1.1-1.1c1.1-1.2 2-2.6 2.8-4 .2-.5.5-1 .7-1.5.4-1 .8-2.1 1.1-3.2s.5-2.2.6-3.3c.1-.6.1-1.1.1-1.7.1-1 0-2.2-.2-3.3z" fill="url(#B)"/><linearGradient id="C" gradientUnits="userSpaceOnUse" x1="120.867" y1="82.251" x2="142.259" y2="45.2"><stop offset="0" stop-color="#1e63fb"/><stop offset="1" stop-color="#f0f6ff"/></linearGradient><path d="M133.3 45.8c7.1-1.3 12.8 4.3 12.8 12.4s-5.7 15.8-12.8 17.1-12.8-4.3-12.8-12.4 5.8-15.8 12.8-17.1z" fill="url(#C)"/><path d="M131.7 50.8c-.1 0-.1.1-.2.1.1 0 .1-.1.2-.1z" class="l"/><g opacity=".9"><linearGradient id="D" gradientUnits="userSpaceOnUse" x1="141.419" y1="59.961" x2="125.701" y2="59.961"><stop offset="0" stop-color="#fff"/><stop offset="1" stop-color="#dbdfe6" stop-opacity=".96"/></linearGradient><path d="M126.4 70.6c-.2 0-.3-.1-.4-.2-.2-.2-.3-.4-.3-.6v-.1l.7-2.7c.2-.9.8-1.7 1.6-2.1.2-.1 1.1-.7 1.5-1 .4-.2 1-.7 1.2-1.1 0 0 .1-.2.1-.8v-.3l-.1-.1c-.5-.4-.8-.9-.8-1.5v-.5c-.2 0-.4-.2-.4-.4-.2-.5-.4-.9-.5-1.4v-.1c0-.3.2-.5.3-.7-.1-.3-.2-.7-.3-1.1v-.2c0-.8.1-3.6 1.8-4.3 0-.1.1-.2.1-.3.2-.3.4-.6.7-.8.6-.4 1.3-.7 2-.8 1.1-.2 2.4-.1 3.1.2.1 0 .1.1.1.2s0 .1-.1.2l-.3.3c1.2.8 1.5 2.5 1.5 3.5v.5l-.3 1.1c.2.1.4.4.4.7v.1c-.1.5-.3 1-.5 1.5-.1.2-.2.4-.4.5v.5a2.61 2.61 0 0 1-.7 1.7l-.1.2v.4c0 .2 0 .5.1.7s.7.5 1.1.6c.5.1 1.4.4 1.5.4.8.1 1.5.8 1.7 1.6l.7 2.5v.1c0 .5-.3.9-.8 1l-14.1 2.6h-.1zm.1-.9l14.1-2.6s.1 0 .1-.1l-.7-2.4c-.1-.5-.6-.9-1.1-1.1 0 0-.1 0-.3-.1l-1.3-.4s-1.2-.3-1.5-.9c-.2-.3-.2-.8-.2-1.7 0-.2.1-.3.2-.5l.2-.2c.3-.3.4-.7.5-1.1v-.7c0-.2.1-.4.2-.5s.2-.1.3-.2c.2-.4.3-.8.4-1.3l-.1-.1c-.2-.1-.3-.4-.3-.7l.3-1.2c0-.3.1-2.6-1.3-3.3a.55.55 0 0 1-.3-.5v-.2c-.6-.1-1.2-.1-1.9.1-1.7.3-2.2 1.1-2.3 1.4a.78.78 0 0 1-.4.4c-.6.2-.9.8-1.1 1.9-.1.6-.2 1.1-.2 1.7.1.3.2.7.3 1.1.1.2 0 .5-.2.6l-.2.2c.1.4.2.7.4 1.1.1 0 .2 0 .3.1.2.1.3.3.2.5v.7c0 .3.2.7.4.9l.2.1a.76.76 0 0 1 .2.4c0 .6 0 1.3-.2 1.7-.3.7-1.5 1.4-1.5 1.5-.2.1-.6.4-1.5.9h-.1c-.6.3-1.1.9-1.2 1.6l-.4 2.9z" fill="url(#D)"/></g><linearGradient id="E" gradientUnits="userSpaceOnUse" x1="127.515" y1="75.252" x2="143.604" y2="44.519"><stop offset="0" stop-color="#1e63fb"/><stop offset="1" stop-color="#f0f6ff"/></linearGradient><path d="M140.1 64.7l.7 2.4c0 .1-.1.3-.2.3l-2.7.5-2.8.5-.8.2-1.5.3-6.2 1.1c-.1 0-.2 0-.2-.2v-.1l.7-2.7c.2-.7.6-1.3 1.3-1.7l1.5-1s1.1-.7 1.5-1.4c.2-.4.2-1.2.1-1.6 0-.1-.1-.2-.2-.3l-.2-.1c-.3-.3-.5-.6-.5-1.1v-.7c0-.1-.1-.2-.2-.3h-.3v-.1c-.2-.4-.3-.8-.4-1.3 0-.1.1-.2.2-.3s.2-.3.1-.5l-.3-1.1c0-.6 0-1.2.2-1.8.2-1.1.6-1.8 1.3-2l.3-.3c.1-.4.6-1.2 2.4-1.5.7-.1 1.5-.1 2.2 0-.1.1-.1.2-.2.4 0 .1.1.3.2.3 1.5.8 1.4 3.2 1.4 3.5l-.3 1.2c0 .2 0 .3.2.4.1.1.2.1.2.2-.1.3-.3 1.1-.4 1.5l-.1.1c-.1 0-.1 0-.2.1s-.1.2-.2.3v.7c0 .5-.2.9-.5 1.2l-.2.2c-.1.1-.1.2-.2.3 0 .4 0 1.2.2 1.5.3.6 1.4.8 1.4.8.5.1 1.5.4 1.5.4.6.6 1.1 1.1 1.2 1.7z" fill="url(#E)"/><linearGradient id="F" gradientUnits="userSpaceOnUse" x1="122.138" y1="75.927" x2="146.992" y2="41.893"><stop offset="0" stop-color="#b0cafa"/><stop offset="1" stop-color="#fff"/></linearGradient><path d="M139.9 44.6c-7.1-2.9-15.8 1.9-19.4 10.6-3.6 8.8-.8 18.3 6.3 21.2s15.8-1.9 19.4-10.6c3.6-8.8.8-18.2-6.3-21.2zm4.6 20.6c-2.5 6.2-7.9 10.4-13.3 10.4-1.3 0-2.5-.2-3.7-.7-2.9-1.2-5.1-3.7-6.1-7.2-1.1-3.6-.8-7.7.8-11.6 2.5-6.2 7.9-10.4 13.3-10.4 1.3 0 2.5.2 3.7.7 2.9 1.2 5.1 3.7 6.1 7.2 1.1 3.6.8 7.7-.8 11.6z" fill="url(#F)"/><linearGradient id="G" gradientUnits="userSpaceOnUse" x1="51.432" y1="60.24" x2="51.432" y2="90.725"><stop offset="0" stop-color="#94b6fb"/><stop offset="1" stop-color="#4777d0"/></linearGradient><path d="M65.5 69.2c-.4-2.4-1.5-4.7-3-6.7-.3-.4-.6-.7-.9-1s-.7-.6-1-.9-.7-.5-1.1-.7c-1.2-.7-2.4-1.2-3.8-1.4-.4-.1-.9-.1-1.4-.2-1-.1-2 0-2.9.2-7.9 1.5-14.3 10-14.3 19.2 0 6.3 3.1 11.2 7.5 13.2 2.2.9 4.5 1.2 6.8.7l1.5-.3a13.9 13.9 0 0 0 2.8-1.2c1.4-.8 2.6-1.7 3.7-2.8l1.1-1.1c1.1-1.2 2-2.6 2.8-4 .2-.5.5-1 .7-1.5.4-1 .8-2.1 1.1-3.2s.5-2.2.6-3.3c.1-.6.1-1.1.1-1.7 0-1.1-.1-2.2-.3-3.3z" fill="url(#G)"/><linearGradient id="H" gradientUnits="userSpaceOnUse" x1="40.508" y1="96.641" x2="62.52" y2="58.515"><stop offset="0" stop-color="#1e63fb"/><stop offset="1" stop-color="#f0f6ff"/></linearGradient><path d="M52.9 60.4c7.1-1.3 12.8 4.3 12.8 12.4S60 88.6 52.9 89.9s-12.8-4.3-12.8-12.4 5.7-15.8 12.8-17.1z" fill="url(#H)"/><path d="M51.2 65.4c-.1 0-.1.1-.2.1.1-.1.2-.1.2-.1z" class="l"/><g opacity=".9"><linearGradient id="I" gradientUnits="userSpaceOnUse" x1="60.965" y1="74.503" x2="45.238" y2="74.503"><stop offset="0" stop-color="#e7f0ff"/><stop offset="1" stop-color="#dce0e7" stop-opacity=".963"/></linearGradient><path d="M46 85.1c-.2 0-.3-.1-.4-.2-.2-.2-.3-.4-.3-.6v-.1l.7-2.7c.2-.9.8-1.7 1.6-2.1.2-.1 1.1-.7 1.5-1 .4-.2 1-.7 1.2-1.1 0 0 .1-.2.1-.8v-.3l-.1-.1c-.5-.4-.8-.9-.8-1.5l-.1-.5c-.2 0-.4-.2-.4-.4-.2-.5-.4-.9-.5-1.4v-.1c0-.3.2-.5.3-.7-.1-.3-.2-.7-.3-1.1v-.2c0-.8.1-3.6 1.8-4.3 0-.1.1-.2.1-.3.2-.3.4-.6.7-.8.6-.4 1.3-.7 2-.8 1.1-.2 2.4-.1 3.1.2.1 0 .1.1.1.2s0 .1-.1.2l-.2.2c1.2.8 1.5 2.5 1.5 3.5v.5l-.3 1.1c.2.1.4.4.4.7v.1c-.1.5-.3 1-.5 1.5-.1.2-.2.4-.4.5v.5a2.61 2.61 0 0 1-.7 1.7l-.1.2v.4c0 .2 0 .5.1.7s.7.5 1.1.6c.5.1 1.4.4 1.5.4.8.1 1.5.8 1.7 1.6l.7 2.5v.1c0 .5-.3.9-.8 1L46 85.1zm0-.8l14.1-2.6s.1 0 .1-.1l-.7-2.4c-.1-.5-.6-.9-1.1-1.1 0 0-.1 0-.3-.1l-1.3-.4s-1.2-.3-1.5-.9c-.2-.3-.2-.8-.2-1.7 0-.2.1-.3.2-.5l.2-.2c.3-.3.4-.7.5-1.1v-.7c0-.2.1-.4.2-.5s.2-.1.3-.2c.2-.4.3-.8.4-1.3l-.1-.1c-.2-.1-.3-.4-.3-.7l.3-1.2c0-.3.1-2.6-1.3-3.3a.55.55 0 0 1-.3-.5v-.2c-.6-.1-1.2-.1-1.9.1-1.7.3-2.2 1.1-2.3 1.4a.78.78 0 0 1-.4.4c-.6.2-.9.8-1.1 1.9-.1.6-.2 1.1-.2 1.7.1.3.2.7.3 1.1.1.2 0 .5-.2.6l-.2.2c.1.4.2.7.4 1.1.1 0 .2 0 .3.1.2.1.3.3.2.5v.7c0 .3.2.7.4.9l.2.1a.76.76 0 0 1 .2.4c0 .6 0 1.3-.2 1.7-.3.7-1.5 1.4-1.5 1.5-.2.1-.6.4-1.5.9h-.1c-.6.3-1.1.9-1.2 1.6l-.4 2.9z" fill="url(#I)"/></g><linearGradient id="J" gradientUnits="userSpaceOnUse" x1="46.987" y1="89.018" x2="66.374" y2="54.161"><stop offset="0" stop-color="#1e63fb"/><stop offset="1" stop-color="#f0f6ff"/></linearGradient><path d="M59.7 79.2l.7 2.4c0 .1-.1.3-.2.3l-2.7.5-2.8.5-.8.2-1.5.3-6.3 1.1c-.1 0-.2 0-.2-.2v-.1l.7-2.7c.2-.7.6-1.3 1.3-1.7l1.5-1s1.1-.7 1.5-1.4c.2-.4.2-1.2.1-1.6 0-.1-.1-.2-.2-.3l-.2-.1c-.3-.3-.5-.6-.5-1.1v-.7c0-.1-.1-.2-.2-.3h-.3v-.1c-.2-.4-.3-.8-.4-1.3 0-.1.1-.2.2-.3s.2-.3.1-.5l-.3-1.1c0-.6 0-1.2.2-1.8.2-1.1.6-1.8 1.3-2 .1 0 .2-.2.3-.3.1-.4.6-1.2 2.4-1.5.7-.1 1.5-.1 2.2 0-.1.1-.2.2-.2.4 0 .1.1.3.2.3 1.5.8 1.4 3.2 1.4 3.5l-.3 1.2c0 .2 0 .3.2.4.1.1.2.1.2.2-.1.3-.3 1.1-.4 1.5l-.1.1c-.1 0-.1 0-.2.1s-.1.2-.2.3v.7c0 .5-.2.9-.5 1.2l-.2.2c-.1.1-.1.2-.2.3 0 .4 0 1.2.2 1.5.3.6 1.4.8 1.4.8.5.1 1.5.4 1.5.4.6.6 1.1 1.1 1.3 1.7z" fill="url(#J)"/><linearGradient id="K" gradientUnits="userSpaceOnUse" x1="41.623" y1="90.594" x2="66.481" y2="56.56"><stop offset="0" stop-color="#b0cafa"/><stop offset="1" stop-color="#fff"/></linearGradient><path d="M59.5 59.2c-7.1-2.9-15.8 1.9-19.4 10.6s-.8 18.3 6.3 21.2 15.8-1.9 19.4-10.6c3.6-8.8.7-18.3-6.3-21.2zm4.6 20.5c-2.5 6.2-7.9 10.4-13.3 10.4-1.3 0-2.5-.2-3.7-.7-2.9-1.2-5.1-3.7-6.1-7.2-1.1-3.6-.8-7.7.8-11.6 2.5-6.2 7.9-10.4 13.3-10.4 1.3 0 2.5.2 3.7.7 2.9 1.2 5.1 3.7 6.1 7.2 1 3.6.7 7.8-.8 11.6z" fill="url(#K)"/><g opacity=".5" fill="#131d30" class="j"><path d="M75.1 155.5c-.6 0-1.2-.1-1.8-.4l-.7-.3c-1-.5-1.5-1.5-1.3-2.6.1-1.1 1-1.9 2-2.1l29.2-5.8 2.1-.2c1.7 0 3.4.4 4.9 1.2l2.1 1c.6.3.9.9.8 1.5a1.49 1.49 0 0 1-1.2 1.2l-35.4 6.5h-.7z" class="k"/><path d="M75.1 155.2c-.6 0-1.1-.1-1.6-.4l-.7-.3c-.8-.4-1.3-1.4-1.2-2.3s.8-1.7 1.8-1.9l29.2-5.8c.7-.1 1.3-.2 2-.2 1.7 0 3.3.4 4.8 1.1l2.1 1c.5.2.7.7.6 1.2s-.5.9-1 1l-35.4 6.5c-.2.1-.4.1-.6.1z" class="k"/><path d="M75.1 154.9c-.5 0-1-.1-1.5-.4l-.7-.3a2.03 2.03 0 0 1-1-2c.1-.8.7-1.5 1.5-1.6l29.2-5.8c.6-.1 1.3-.2 1.9-.2a10.39 10.39 0 0 1 4.6 1.1l2.1 1c.4.2.6.6.5 1s-.4.7-.7.8L75.6 155h-.5v-.1z" class="k"/><path d="M75.1 154.6c-.5 0-.9-.1-1.4-.3l-.7-.3c-.6-.3-1-1-.9-1.7s.6-1.3 1.3-1.4l29.2-5.8c.6-.1 1.3-.2 1.9-.2 1.6 0 3.1.4 4.5 1.1l2.1 1c.3.1.5.5.3.8-.1.2-.3.3-.5.4l-35.4 6.5c-.1-.1-.2-.1-.4-.1z" class="k"/><path d="M75.5 154.3l35.4-6.5c.2 0 .3-.2.3-.4 0-.1-.1-.2-.2-.2l-2.1-1c-1.9-1-4.1-1.3-6.2-.9l-29.2 5.8c-.7.1-1.2.9-1.1 1.6a1.27 1.27 0 0 0 .7.9l.7.3c.6.4 1.2.5 1.7.4z" class="k"/></g><linearGradient id="L" gradientUnits="userSpaceOnUse" x1="75.621" y1="134.675" x2="79.163" y2="147.896"><stop offset=".17" stop-color="#122549" stop-opacity="0"/><stop offset=".88" stop-color="#122549" stop-opacity=".7"/></linearGradient><path d="M82 129.9l31.7 16.9-38.2 8.2a5.23 5.23 0 0 1-3.7-.5l-29.9-16 40.1-8.6z" opacity=".3" fill="url(#L)" class="j"/><linearGradient id="M" gradientUnits="userSpaceOnUse" x1="90.398" y1="81.508" x2="90.398" y2="150.04"><stop offset="0" stop-color="#94b6fb"/><stop offset="1" stop-color="#5d89dc"/></linearGradient><path d="M72.8 73.8c-2.2.4-4 2.7-4 5l-.4 71c0 2.4 1.8 4 4 3.6l35.7-6.5c2.2-.4 4-2.7 4-5l.4-71c0-2.4-1.8-4-4-3.6l-35.7 6.5z" fill="url(#M)"/><linearGradient id="N" gradientUnits="userSpaceOnUse" x1="76.293" y1="82.173" x2="107.273" y2="82.173"><stop offset="0" stop-color="#94b6fb"/><stop offset="1" stop-color="#dfeafe"/></linearGradient><path d="M72.8 73.8l35.7-6.5c2.2-.4 4 1.2 4 3.6l-.2 26.4-42.5-21.6c.7-1 1.8-1.7 3-1.9z" fill="url(#N)"/><path d="M108.5 67.2c.7-.1 1.4 0 2 .2l3 1.5-.7.5-4.5-2.2h.2z" fill="#f0f5fc"/><path d="M68.6 151.2l4.6 2.3-.3 1-2.6-1.3c-.9-.5-1.5-1.2-1.7-2z" fill="#4777d0"/><path d="M72.1 73.9l40.2 20.8v5.8L68.8 78.1c.3-1.8 1.6-3.5 3.3-4.2z" fill="#aecefc"/><path d="M71.5 80.1c0-2.4 1.8-4.6 4-5l35.7-6.5c2.2-.4 4 1.2 4 3.6l-.4 71c0 2.4-1.8 4.6-4 5L75 154.7c-2.2.4-4-1.2-4-3.6l.5-71z" fill="#fff"/><path d="M111.2 68.6c2.2-.4 4 1.2 4 3.6l-.4 71c0 2.4-1.8 4.6-4 5L75 154.7c-2.2.4-4-1.2-4-3.6l.4-71c0-2.4 1.8-4.6 4-5l35.8-6.5z" fill="#f0f6ff"/><linearGradient id="O" gradientUnits="userSpaceOnUse" x1="123.189" y1="132.689" x2="63.039" y2="90.574"><stop offset=".15" stop-color="#fff" stop-opacity="0"/><stop offset=".78" stop-color="#fff"/></linearGradient><path d="M111.9 68.9c.8 0 1.5.3 2 .8.6.7 1 1.5.9 2.4l-.4 71c0 2.2-1.7 4.3-3.7 4.7L75 154.3c-.2 0-.4.1-.6.1-.8 0-1.5-.3-2-.8-.6-.7-1-1.5-.9-2.4l.4-71c0-2.2 1.7-4.3 3.7-4.7l35.7-6.6h.6m0-.4c-.2 0-.5 0-.7.1l-35.7 6.5c-2.2.4-4 2.7-4 5l-.4 71c0 2.1 1.4 3.7 3.3 3.7.2 0 .5 0 .7-.1l35.7-6.5c2.2-.4 4-2.7 4-5l.4-71c0-2.2-1.4-3.7-3.3-3.7z" fill="url(#O)"/><path d="M100.5 76.6l-16.6 3c-.3.1-.6.4-.6.7s.2.5.4.5h.1l16.6-3c.3-.1.6-.4.6-.7s-.2-.5-.4-.5h-.1" fill="#94b6fb"/><path d="M102.8 76.2c-.3.1-.6.4-.6.7s.2.5.4.5h.1c.3-.1.6-.4.6-.7 0-.2-.1-.5-.4-.5h-.1" fill="#feb7cb"/><linearGradient id="P" gradientUnits="userSpaceOnUse" x1="93.415" y1="141.244" x2="93.415" y2="89.441"><stop offset="0" stop-color="#6e9bfb"/><stop offset="1" stop-color="#feb7cb"/></linearGradient><path d="M112.9 79.7v63.2L74 150V86.8z" fill="url(#P)"/><linearGradient id="Q" gradientUnits="userSpaceOnUse" x1="90.445" y1="8.334" x2="90.445" y2="63.853"><stop offset="0" stop-color="#94b6fb"/><stop offset="1" stop-color="#4777d0"/></linearGradient><path d="M116 24.6c-.9-4.7-2.8-8.9-5.4-12.1-.5-.7-1.1-1.3-1.7-1.8-.6-.6-1.2-1.1-1.9-1.6-.6-.5-1.3-.9-2-1.4-2.1-1.2-4.4-2.1-6.8-2.5-.8-.2-1.7-.2-2.5-.3-1.8-.1-3.5 0-5.3.3-14.4 2.7-26.1 18.3-26.1 35 0 11.4 5.6 20.4 13.7 24 3.7 1.6 8 2.2 12.5 1.4l2.7-.6c1.8-.5 3.5-1.2 5.1-2.1a34.1 34.1 0 0 0 6.8-5c.7-.7 1.4-1.4 2-2.1 2-2.2 3.7-4.7 5-7.3.5-.9.9-1.8 1.3-2.7.8-1.9 1.5-3.8 2-5.8s.9-4 1-6.1c.1-1 .1-2.1.1-3.1.1-2.2-.1-4.2-.5-6.2z" fill="url(#Q)"/><linearGradient id="R" gradientUnits="userSpaceOnUse" x1="82.815" y1="56.775" x2="84.72" y2="58.907"><stop offset="0" stop-color="#94b6fb"/><stop offset="1" stop-color="#4777d0"/></linearGradient><path d="M93.1 68.9L88 65h4.4z" fill="url(#R)"/><linearGradient id="S" gradientUnits="userSpaceOnUse" x1="68.474" y1="73.012" x2="121.692" y2="-8.051"><stop offset="0" stop-color="#1e63fb"/><stop offset="1" stop-color="#f0f6ff"/></linearGradient><path d="M93.1 8.6c12.9-2.4 23.4 7.8 23.4 22.6S106 60 93.2 62.4c-12.9 2.4-23.4-7.8-23.4-22.6-.1-14.9 10.4-28.9 23.3-31.2z" fill="url(#S)"/><path d="M90 17.7c-.1.1-.2.1-.2.2 0-.1.1-.2.2-.2z" class="l"/><linearGradient id="T" gradientUnits="userSpaceOnUse" x1="76.452" y1="72.521" x2="115.05" y2="-13.325"><stop offset="0" stop-color="#b0cafa"/><stop offset="1" stop-color="#fff"/></linearGradient><path d="M91 65.9l2.1 3.1 2.1-3.9c13.5-3.7 24-18.6 24-34.5 0-16.6-11.7-28-26.2-25.3s-26.1 18.3-26.1 35C67 56.1 77.6 67.1 91 65.9m2.2-3.5c-12.9 2.4-23.4-7.8-23.4-22.6S80.2 10.9 93.1 8.6s23.4 7.8 23.4 22.6S106 60 93.2 62.4z" fill="url(#T)"/><g opacity=".9"><linearGradient id="U" gradientUnits="userSpaceOnUse" x1="107.756" y1="34.344" x2="79.135" y2="34.344"><stop offset="0" stop-color="#fff"/><stop offset="1" stop-color="#dbdfe6" stop-opacity=".96"/></linearGradient><path d="M80.5 53.6c-.3 0-.6-.1-.8-.3-.3-.3-.5-.7-.5-1.2V52l1.3-5c.4-1.6 1.5-3 2.9-3.8l2.8-1.8c.7-.4 1.9-1.3 2.1-1.9 0-.1.2-.4.2-1.5v-.6l-.2-.1c-.9-.6-1.4-1.6-1.4-2.7v-.8c-.4 0-.7-.3-.8-.6-.4-.8-.7-1.7-.9-2.6v-.2c.1-.5.3-1 .6-1.3-.2-.6-.3-1.3-.5-2v-.4c0-1.5.2-6.5 3.2-7.8.1-.2.1-.3.2-.5.4-.6.8-1.1 1.4-1.5 1.1-.7 2.3-1.2 3.6-1.5 2.1-.4 4.4-.2 5.6.4.1.1.2.2.2.3s0 .2-.1.3l-.6.6c2.3 1.5 2.6 4.5 2.6 6.3v1.1l-.5 2c.4.3.7.7.7 1.2v.2l-.9 2.8c-.1.4-.4.7-.8.9v1c0 1.2-.5 2.3-1.3 3.1l-.2.2v.7c0 .5 0 .9.1 1.4.2.4 1.4.9 2 1.1.9.2 2.6.7 2.8.8 1.5.2 2.6 1.3 3.1 2.9l1.3 4.5v.1c0 .9-.6 1.7-1.5 1.9l-25.7 4.6zm.1-1.5l25.6-4.7c.1 0 .1-.1.2-.2l-1.3-4.3c-.2-1-1-1.7-2-1.9 0 0-.2-.1-.5-.1-.6-.2-1.7-.5-2.4-.6 0 0-2.2-.5-2.8-1.7-.3-.5-.4-1.5-.3-3 0-.3.2-.6.4-.8l.3-.4c.5-.5.8-1.3.9-2l.1-1.3c0-.3.1-.7.4-.9.1-.1.3-.2.5-.3.3-.8.5-1.5.7-2.3l-.2-.2c-.4-.2-.6-.7-.5-1.2l.5-2.2c0-.6.2-4.7-2.3-6-.3-.2-.5-.5-.5-.9 0-.1 0-.3.1-.4-1.1-.2-2.3-.1-3.4.1-3.1.6-3.9 2-4.1 2.6a1.21 1.21 0 0 1-.7.7c-1 .3-1.7 1.5-2.1 3.4a16.28 16.28 0 0 0-.3 3.1c.2.6.3 1.3.5 2 .1.4 0 .9-.3 1.2-.1.1-.2.2-.3.4l.6 1.9c.2 0 .4 0 .5.1.3.2.5.5.5.8l.1 1.3c0 .6.3 1.2.8 1.6l.3.2c.3.2.4.5.4.8.1 1 .1 2.4-.3 3.1-.6 1.3-2.7 2.6-2.8 2.6l-2.6 1.7s-.1 0-.1.1c-1.1.6-1.9 1.7-2.2 2.9l-1.4 4.8z" fill="url(#U)"/></g><linearGradient id="V" gradientUnits="userSpaceOnUse" x1="84.175" y1="53.108" x2="106.508" y2="20.441"><stop offset="0" stop-color="#6e9bfb"/><stop offset="1" stop-color="#feb7cb"/></linearGradient><path d="M105.4 42.9l1.3 4.4c0 .3-.2.5-.5.6l-4.9.9-5.1.9-1.4.2-2.8.5-11.4 2.1a.55.55 0 0 1-.5-.3l1.3-4.8c.3-1.3 1.2-2.4 2.4-3.1.1-.1 1.9-1.3 2.8-1.8.1-.1 2-1.3 2.6-2.4.3-.7.3-2.1.2-2.9 0-.2-.1-.4-.2-.5l-.3-.2a2.42 2.42 0 0 1-1-1.9l-.1-1.3a.55.55 0 0 0-.3-.5c-.1-.1-.2-.1-.3-.1s-.1 0-.2.1c0 0 0-.1-.1-.1-.3-.7-.6-1.5-.8-2.3.1-.2.2-.4.4-.6s.3-.5.2-.8l-.5-2.1c0-1.1.1-2.2.3-3.2.4-2 1.2-3.3 2.3-3.7.2-.1.4-.3.5-.5.2-.6 1.1-2.2 4.4-2.8 1.3-.2 2.7-.2 4.1 0-.2.2-.3.4-.2.7a.55.55 0 0 0 .3.5c2.8 1.4 2.6 5.9 2.5 6.4-.2.6-.3 1.4-.5 2.2-.1.3 0 .6.3.8.2.1.4.2.5.4-.1.6-.6 2-.8 2.6 0 .1-.1.1-.2.1a.76.76 0 0 0-.4.2c-.2.2-.3.4-.3.6v1.2c0 .8-.4 1.7-1 2.3l-.3.3c-.2.2-.2.4-.2.6 0 .8-.1 2.3.2 2.8.6 1 2.6 1.5 2.6 1.5.9.2 2.8.8 2.8.8 1.1.2 2 1.1 2.3 2.2z" fill="url(#V)"/><path d="M94.6 4.9h1.1c.3 0 .6 0 .9.1h.7c12.5 0 22 10.7 22 25.7 0 3.3-.5 6.6-1.3 9.7 2.7 2 5.3 4.1 7.9 6.3 1.8-1.3 3.8-2.2 6-2.6.7-.1 1.4-.2 2.1-.2h1.5c1.5 0 2.9.3 4.4.8 7.1 2.9 9.9 12.4 6.3 21.2-.1.2-.1.3-.2.5 4.9 5.5 9.9 11.7 15.1 18.9 19.1 26.2 17.1 49.9-7.2 65-26 16.3-46 22.7-82.8 23.7-1.7 0-3.4.1-5.2.1-31.9 0-58.6-8.8-51.8-50.1 5.2-31.7 12-49.5 30.9-75.1 8.9-12 15.9-19.7 22.6-23.9C72 14.9 80.6 7.1 90.4 5.3c1.4-.3 2.8-.4 4.2-.4m0-4c-1.6 0-3.2.1-4.8.4-10.5 1.9-20.1 9.9-25.3 21C58 26.7 51 34.2 42 46.4c-18.7 25.4-26.1 43.4-31.7 76.9-2.8 16.9-.3 30.1 7.5 39.2C26.7 173 42.1 178 66 178c1.7 0 3.5 0 5.3-.1 36.4-1 57-6.9 84.8-24.3 11.9-7.5 19-16.9 21.2-28.2 2.5-12.9-2-27.6-12.9-42.6-4.7-6.4-9.2-12.1-13.7-17.3 3.3-10.3-.6-21-9.2-24.5a14.82 14.82 0 0 0-5.9-1.2h-1.5c-1 0-2 .1-2.9.3-1.7.3-3.3.9-4.9 1.7-1.2-1-2.5-2-3.8-3 .5-2.7.8-5.4.8-8.1 0-16.9-11.2-29.7-26-29.7h-.5c-.3 0-.6 0-.9-.1h-1.3z" fill="#fff"/></svg>